
<svg xmlns="http://www.w3.org/2000/svg" version="1.1" xmlns:xlink="http://www.w3.org/1999/xlink" xmlns:svgjs="http://svgjs.dev/svgjs" viewBox="0 0 800 400"><path d="M57.39910125732422,198.20628356933594C85.79969787597656,169.20777638753256,104.33482106526694,111.80867258707683,142.60089111328125,111.21076202392578C180.86696116129556,110.61285146077473,135.42601013183594,166.8161392211914,172.1973114013672,196.4125518798828C208.96861267089844,226.00896453857422,220.62780253092447,216.74140421549478,252.914794921875,200C285.2017873128255,183.25859578450522,240.6576944986979,138.41554260253906,269.05828857421875,146.18833923339844C297.45888264973956,153.9611358642578,291.18084716796875,203.28849283854166,338.1165771484375,223.31838989257812C385.05230712890625,243.3482869466146,358.14649454752606,226.60688273111978,409.865478515625,206.2780303955078C461.58446248372394,185.94917805989584,427.5037333170573,143.49775187174478,493.2735290527344,162.3318328857422C559.0433247884115,181.1659138997396,552.7652893066406,259.4917805989583,607.1748657226562,262.7802734375C661.5844421386719,266.0687662760417,612.5560709635416,198.80418904622397,656.5022583007812,172.1973114013672C700.4484456380209,145.5904337565104,702.8400472005209,174.28998311360678,739.013427734375,182.9596405029297C775.1868082682291,191.6292978922526,808.0717163085938,191.62930297851562,765.0223999023438,198.20628356933594C721.9730834960938,204.78326416015625,661.5844523111979,201.19581604003906,609.865478515625,202.69058227539062" fill="none" stroke-width="11" stroke="url(&quot;#SvgjsLinearGradient1001&quot;)" stroke-linecap="round"></path><defs><linearGradient id="SvgjsLinearGradient1001"><stop stop-color="hsl(0, 0%, 0%)" offset="0"></stop><stop stop-color="hsl(0, 0%, 0%)" offset="1"></stop></linearGradient></defs></svg>